<svg width="375" height="210" viewBox="0 0 375 210" fill="none" xmlns="http://www.w3.org/2000/svg">
<rect width="375" height="209" transform="translate(0 0.880615)" fill="black"/>
<path d="M138.644 86.979L132.128 93.6426V102.993H127V66.8806H132.128V87.0864L151.571 66.8806H157.447L142.17 83.1098L158.515 102.993H152.532L138.644 86.979Z" fill="white"/>
<path d="M195.905 100.091L197.935 96.2221C200.285 97.8343 203.918 99.0166 207.443 99.0166C212.037 99.0166 213.853 97.6193 213.853 95.2548C213.853 89.1286 196.653 94.395 196.653 83.5397C196.653 78.5958 201.033 75.3714 207.977 75.3714C211.503 75.3714 215.562 76.3387 217.912 77.8434L215.776 81.7126C213.319 80.1005 210.648 79.5631 207.977 79.5631C203.704 79.5631 201.567 81.1752 201.567 83.3248C201.567 89.7735 218.767 84.507 218.767 95.1474C218.767 100.091 214.28 103.208 207.016 103.208C202.636 103.316 198.149 101.918 195.905 100.091Z" fill="white"/>
<path d="M249 86.4415V102.993H244.299V99.3388C242.697 101.811 239.599 103.208 235.326 103.208C229.13 103.208 225.284 99.8762 225.284 95.1472C225.284 90.7406 228.061 87.1938 236.18 87.1938H243.979V86.2265C243.979 82.0349 241.522 79.6704 236.715 79.6704C233.51 79.6704 230.198 80.8526 228.061 82.5723L226.031 78.8106C228.809 76.5535 232.869 75.2638 237.249 75.2638C244.834 75.3713 249 79.0255 249 86.4415ZM244.086 94.6098V90.7406H236.501C231.587 90.7406 230.198 92.6752 230.198 94.9322C230.198 97.6192 232.441 99.3388 236.18 99.3388C239.919 99.4463 242.911 97.8341 244.086 94.6098Z" fill="white"/>
<path d="M180.095 95.7924V103.101L183.193 101.274V93.9653L180.095 95.7924Z" fill="white"/>
<path d="M188.641 86.8716L175.928 79.4556L168.877 75.3714L161.933 87.5164L162.04 98.9091L174.646 106.325L175.928 105.573V94.8249L181.59 84.8295L187.359 88.1613V98.9091L188.641 98.1567V86.8716Z" fill="white"/>
<path d="M144.685 130.917C143.901 130.917 143.185 130.729 142.537 130.353C141.897 129.977 141.389 129.465 141.013 128.817C140.645 128.169 140.461 127.457 140.461 126.681C140.461 125.905 140.645 125.193 141.013 124.545C141.389 123.897 141.901 123.385 142.549 123.009C143.197 122.633 143.917 122.445 144.709 122.445C145.501 122.445 146.217 122.629 146.857 122.997C147.505 123.365 148.013 123.873 148.381 124.521C148.749 125.161 148.933 125.873 148.933 126.657C148.933 127.441 148.745 128.161 148.369 128.817C147.993 129.465 147.481 129.977 146.833 130.353C146.185 130.729 145.469 130.917 144.685 130.917ZM144.685 130.377C145.373 130.377 145.997 130.213 146.557 129.885C147.117 129.557 147.557 129.109 147.877 128.541C148.205 127.973 148.369 127.345 148.369 126.657C148.369 125.969 148.209 125.345 147.889 124.785C147.577 124.225 147.141 123.785 146.581 123.465C146.029 123.145 145.405 122.985 144.709 122.985C144.021 122.985 143.393 123.149 142.825 123.477C142.265 123.805 141.825 124.253 141.505 124.821C141.185 125.381 141.025 126.001 141.025 126.681C141.025 127.361 141.185 127.985 141.505 128.553C141.825 129.113 142.265 129.557 142.825 129.885C143.385 130.213 144.005 130.377 144.685 130.377ZM144.817 129.153C144.329 129.153 143.893 129.049 143.509 128.841C143.125 128.633 142.825 128.341 142.609 127.965C142.393 127.589 142.285 127.161 142.285 126.681C142.285 126.201 142.393 125.773 142.609 125.397C142.825 125.021 143.125 124.729 143.509 124.521C143.893 124.313 144.329 124.209 144.817 124.209C145.233 124.209 145.613 124.297 145.957 124.473C146.301 124.649 146.569 124.885 146.761 125.181L146.077 125.673C145.789 125.241 145.365 125.025 144.805 125.025C144.341 125.025 143.957 125.177 143.653 125.481C143.349 125.785 143.197 126.185 143.197 126.681C143.197 127.177 143.349 127.577 143.653 127.881C143.957 128.185 144.341 128.337 144.805 128.337C145.365 128.337 145.789 128.121 146.077 127.689L146.761 128.169C146.569 128.473 146.301 128.713 145.957 128.889C145.613 129.065 145.233 129.153 144.817 129.153ZM159.209 129.837V130.881H153.173V130.065L156.593 126.765C157.009 126.365 157.289 126.021 157.433 125.733C157.577 125.437 157.649 125.141 157.649 124.845C157.649 124.405 157.493 124.065 157.181 123.825C156.877 123.577 156.437 123.453 155.861 123.453C154.933 123.453 154.217 123.757 153.713 124.365L152.897 123.657C153.225 123.257 153.653 122.945 154.181 122.721C154.717 122.497 155.313 122.385 155.969 122.385C156.849 122.385 157.549 122.597 158.069 123.021C158.589 123.437 158.849 124.005 158.849 124.725C158.849 125.173 158.753 125.597 158.561 125.997C158.369 126.397 158.005 126.853 157.469 127.365L154.901 129.837H159.209ZM163.592 130.977C162.928 130.977 162.336 130.809 161.816 130.473C161.304 130.129 160.9 129.633 160.604 128.985C160.308 128.337 160.16 127.569 160.16 126.681C160.16 125.793 160.308 125.025 160.604 124.377C160.9 123.729 161.304 123.237 161.816 122.901C162.336 122.557 162.928 122.385 163.592 122.385C164.248 122.385 164.832 122.557 165.344 122.901C165.864 123.237 166.272 123.729 166.568 124.377C166.864 125.025 167.012 125.793 167.012 126.681C167.012 127.569 166.864 128.337 166.568 128.985C166.272 129.633 165.864 130.129 165.344 130.473C164.832 130.809 164.248 130.977 163.592 130.977ZM163.592 129.909C164.264 129.909 164.8 129.633 165.2 129.081C165.608 128.529 165.812 127.729 165.812 126.681C165.812 125.633 165.608 124.833 165.2 124.281C164.8 123.729 164.264 123.453 163.592 123.453C162.912 123.453 162.368 123.729 161.96 124.281C161.56 124.833 161.36 125.633 161.36 126.681C161.36 127.729 161.56 128.529 161.96 129.081C162.368 129.633 162.912 129.909 163.592 129.909ZM174.033 129.837V130.881H167.997V130.065L171.417 126.765C171.833 126.365 172.113 126.021 172.257 125.733C172.401 125.437 172.473 125.141 172.473 124.845C172.473 124.405 172.317 124.065 172.005 123.825C171.701 123.577 171.261 123.453 170.685 123.453C169.757 123.453 169.041 123.757 168.537 124.365L167.721 123.657C168.049 123.257 168.477 122.945 169.005 122.721C169.541 122.497 170.137 122.385 170.793 122.385C171.673 122.385 172.373 122.597 172.893 123.021C173.413 123.437 173.673 124.005 173.673 124.725C173.673 125.173 173.577 125.597 173.385 125.997C173.193 126.397 172.829 126.853 172.293 127.365L169.725 129.837H174.033ZM178.416 130.977C177.752 130.977 177.16 130.809 176.64 130.473C176.128 130.129 175.724 129.633 175.428 128.985C175.132 128.337 174.984 127.569 174.984 126.681C174.984 125.793 175.132 125.025 175.428 124.377C175.724 123.729 176.128 123.237 176.64 122.901C177.16 122.557 177.752 122.385 178.416 122.385C179.072 122.385 179.656 122.557 180.168 122.901C180.688 123.237 181.096 123.729 181.392 124.377C181.688 125.025 181.836 125.793 181.836 126.681C181.836 127.569 181.688 128.337 181.392 128.985C181.096 129.633 180.688 130.129 180.168 130.473C179.656 130.809 179.072 130.977 178.416 130.977ZM178.416 129.909C179.088 129.909 179.624 129.633 180.024 129.081C180.432 128.529 180.636 127.729 180.636 126.681C180.636 125.633 180.432 124.833 180.024 124.281C179.624 123.729 179.088 123.453 178.416 123.453C177.736 123.453 177.192 123.729 176.784 124.281C176.384 124.833 176.184 125.633 176.184 126.681C176.184 127.729 176.384 128.529 176.784 129.081C177.192 129.633 177.736 129.909 178.416 129.909ZM189.631 127.149L188.095 128.709V130.881H186.895V122.481H188.095V127.173L192.655 122.481H194.023L190.435 126.261L194.251 130.881H192.847L189.631 127.149ZM197.515 124.461C198.395 124.461 199.067 124.677 199.531 125.109C200.003 125.541 200.239 126.185 200.239 127.041V130.881H199.147V130.041C198.955 130.337 198.679 130.565 198.319 130.725C197.967 130.877 197.547 130.953 197.059 130.953C196.347 130.953 195.775 130.781 195.343 130.437C194.919 130.093 194.707 129.641 194.707 129.081C194.707 128.521 194.911 128.073 195.319 127.737C195.727 127.393 196.375 127.221 197.263 127.221H199.087V126.993C199.087 126.497 198.943 126.117 198.655 125.853C198.367 125.589 197.943 125.457 197.383 125.457C197.007 125.457 196.639 125.521 196.279 125.649C195.919 125.769 195.615 125.933 195.367 126.141L194.887 125.277C195.215 125.013 195.607 124.813 196.063 124.677C196.519 124.533 197.003 124.461 197.515 124.461ZM197.251 130.065C197.691 130.065 198.071 129.969 198.391 129.777C198.711 129.577 198.943 129.297 199.087 128.937V128.049H197.311C196.335 128.049 195.847 128.377 195.847 129.033C195.847 129.353 195.971 129.605 196.219 129.789C196.467 129.973 196.811 130.065 197.251 130.065ZM204.195 130.953C203.675 130.953 203.175 130.885 202.695 130.749C202.215 130.605 201.839 130.425 201.567 130.209L202.047 129.297C202.327 129.497 202.667 129.657 203.067 129.777C203.467 129.897 203.871 129.957 204.279 129.957C205.287 129.957 205.791 129.669 205.791 129.093C205.791 128.901 205.723 128.749 205.587 128.637C205.451 128.525 205.279 128.445 205.071 128.397C204.871 128.341 204.583 128.281 204.207 128.217C203.695 128.137 203.275 128.045 202.947 127.941C202.627 127.837 202.351 127.661 202.119 127.413C201.887 127.165 201.771 126.817 201.771 126.369C201.771 125.793 202.011 125.333 202.491 124.989C202.971 124.637 203.615 124.461 204.423 124.461C204.847 124.461 205.271 124.513 205.695 124.617C206.119 124.721 206.467 124.861 206.739 125.037L206.247 125.949C205.727 125.613 205.115 125.445 204.411 125.445C203.923 125.445 203.551 125.525 203.295 125.685C203.039 125.845 202.911 126.057 202.911 126.321C202.911 126.529 202.983 126.693 203.127 126.813C203.271 126.933 203.447 127.021 203.655 127.077C203.871 127.133 204.171 127.197 204.555 127.269C205.067 127.357 205.479 127.453 205.791 127.557C206.111 127.653 206.383 127.821 206.607 128.061C206.831 128.301 206.943 128.637 206.943 129.069C206.943 129.645 206.695 130.105 206.199 130.449C205.711 130.785 205.043 130.953 204.195 130.953ZM210.699 124.461C211.579 124.461 212.251 124.677 212.715 125.109C213.187 125.541 213.423 126.185 213.423 127.041V130.881H212.331V130.041C212.139 130.337 211.863 130.565 211.503 130.725C211.151 130.877 210.731 130.953 210.243 130.953C209.531 130.953 208.959 130.781 208.527 130.437C208.103 130.093 207.891 129.641 207.891 129.081C207.891 128.521 208.095 128.073 208.503 127.737C208.911 127.393 209.559 127.221 210.447 127.221H212.271V126.993C212.271 126.497 212.127 126.117 211.839 125.853C211.551 125.589 211.127 125.457 210.567 125.457C210.191 125.457 209.823 125.521 209.463 125.649C209.103 125.769 208.799 125.933 208.551 126.141L208.071 125.277C208.399 125.013 208.791 124.813 209.247 124.677C209.703 124.533 210.187 124.461 210.699 124.461ZM210.435 130.065C210.875 130.065 211.255 129.969 211.575 129.777C211.895 129.577 212.127 129.297 212.271 128.937V128.049H210.495C209.519 128.049 209.031 128.377 209.031 129.033C209.031 129.353 209.155 129.605 209.403 129.789C209.651 129.973 209.995 130.065 210.435 130.065ZM215.831 130.953C215.607 130.953 215.415 130.877 215.255 130.725C215.095 130.565 215.015 130.365 215.015 130.125C215.015 129.893 215.095 129.701 215.255 129.549C215.415 129.389 215.607 129.309 215.831 129.309C216.055 129.309 216.243 129.385 216.395 129.537C216.547 129.689 216.623 129.885 216.623 130.125C216.623 130.365 216.543 130.565 216.383 130.725C216.231 130.877 216.047 130.953 215.831 130.953ZM227.016 128.781H222.552L221.628 130.881H220.392L224.196 122.481H225.384L229.2 130.881H227.94L227.016 128.781ZM226.596 127.821L224.784 123.705L222.972 127.821H226.596ZM230.285 121.977H231.437V130.881H230.285V121.977ZM233.637 121.977H234.789V130.881H233.637V121.977ZM144.342 142.589C144.542 142.221 144.838 141.941 145.23 141.749C145.622 141.557 146.098 141.461 146.658 141.461V142.577C146.594 142.569 146.506 142.565 146.394 142.565C145.77 142.565 145.278 142.753 144.918 143.129C144.566 143.497 144.39 144.025 144.39 144.713V147.881H143.238V141.521H144.342V142.589ZM148.078 141.521H149.23V147.881H148.078V141.521ZM148.654 140.297C148.43 140.297 148.242 140.225 148.09 140.081C147.946 139.937 147.874 139.761 147.874 139.553C147.874 139.345 147.946 139.169 148.09 139.025C148.242 138.873 148.43 138.797 148.654 138.797C148.878 138.797 149.062 138.869 149.206 139.013C149.358 139.149 149.434 139.321 149.434 139.529C149.434 139.745 149.358 139.929 149.206 140.081C149.062 140.225 148.878 140.297 148.654 140.297ZM157.514 141.521V147.017C157.514 148.129 157.238 148.949 156.686 149.477C156.134 150.013 155.31 150.281 154.214 150.281C153.614 150.281 153.042 150.197 152.498 150.029C151.954 149.869 151.514 149.637 151.178 149.333L151.73 148.445C152.026 148.701 152.39 148.901 152.822 149.045C153.262 149.197 153.714 149.273 154.178 149.273C154.922 149.273 155.47 149.097 155.822 148.745C156.182 148.393 156.362 147.857 156.362 147.137V146.633C156.09 146.961 155.754 147.209 155.354 147.377C154.962 147.537 154.534 147.617 154.07 147.617C153.462 147.617 152.91 147.489 152.414 147.233C151.926 146.969 151.542 146.605 151.262 146.141C150.982 145.669 150.842 145.133 150.842 144.533C150.842 143.933 150.982 143.401 151.262 142.937C151.542 142.465 151.926 142.101 152.414 141.845C152.91 141.589 153.462 141.461 154.07 141.461C154.55 141.461 154.994 141.549 155.402 141.725C155.818 141.901 156.158 142.161 156.422 142.505V141.521H157.514ZM154.202 146.609C154.618 146.609 154.99 146.521 155.318 146.345C155.654 146.169 155.914 145.925 156.098 145.613C156.29 145.293 156.386 144.933 156.386 144.533C156.386 143.917 156.182 143.421 155.774 143.045C155.366 142.661 154.842 142.469 154.202 142.469C153.554 142.469 153.026 142.661 152.618 143.045C152.21 143.421 152.006 143.917 152.006 144.533C152.006 144.933 152.098 145.293 152.282 145.613C152.474 145.925 152.734 146.169 153.062 146.345C153.398 146.521 153.778 146.609 154.202 146.609ZM163.111 141.461C163.919 141.461 164.559 141.697 165.031 142.169C165.511 142.633 165.751 143.317 165.751 144.221V147.881H164.599V144.353C164.599 143.737 164.451 143.273 164.155 142.961C163.859 142.649 163.435 142.493 162.883 142.493C162.259 142.493 161.767 142.677 161.407 143.045C161.047 143.405 160.867 143.925 160.867 144.605V147.881H159.715V138.977H160.867V142.421C161.107 142.117 161.419 141.881 161.803 141.713C162.195 141.545 162.631 141.461 163.111 141.461ZM171.459 147.509C171.291 147.653 171.083 147.765 170.835 147.845C170.587 147.917 170.331 147.953 170.067 147.953C169.427 147.953 168.931 147.781 168.579 147.437C168.227 147.093 168.051 146.601 168.051 145.961V142.469H166.971V141.521H168.051V140.129H169.203V141.521H171.027V142.469H169.203V145.913C169.203 146.257 169.287 146.521 169.455 146.705C169.631 146.889 169.879 146.981 170.199 146.981C170.551 146.981 170.851 146.881 171.099 146.681L171.459 147.509ZM174.676 147.953C174.156 147.953 173.656 147.885 173.176 147.749C172.696 147.605 172.32 147.425 172.048 147.209L172.528 146.297C172.808 146.497 173.148 146.657 173.548 146.777C173.948 146.897 174.352 146.957 174.76 146.957C175.768 146.957 176.272 146.669 176.272 146.093C176.272 145.901 176.204 145.749 176.068 145.637C175.932 145.525 175.76 145.445 175.552 145.397C175.352 145.341 175.064 145.281 174.688 145.217C174.176 145.137 173.756 145.045 173.428 144.941C173.108 144.837 172.832 144.661 172.6 144.413C172.368 144.165 172.252 143.817 172.252 143.369C172.252 142.793 172.492 142.333 172.972 141.989C173.452 141.637 174.096 141.461 174.904 141.461C175.328 141.461 175.752 141.513 176.176 141.617C176.6 141.721 176.948 141.861 177.22 142.037L176.728 142.949C176.208 142.613 175.596 142.445 174.892 142.445C174.404 142.445 174.032 142.525 173.776 142.685C173.52 142.845 173.392 143.057 173.392 143.321C173.392 143.529 173.464 143.693 173.608 143.813C173.752 143.933 173.928 144.021 174.136 144.077C174.352 144.133 174.652 144.197 175.036 144.269C175.548 144.357 175.96 144.453 176.272 144.557C176.592 144.653 176.864 144.821 177.088 145.061C177.312 145.301 177.424 145.637 177.424 146.069C177.424 146.645 177.176 147.105 176.68 147.449C176.192 147.785 175.524 147.953 174.676 147.953ZM183.19 142.589C183.39 142.221 183.686 141.941 184.078 141.749C184.47 141.557 184.946 141.461 185.506 141.461V142.577C185.442 142.569 185.354 142.565 185.242 142.565C184.618 142.565 184.126 142.753 183.766 143.129C183.414 143.497 183.238 144.025 183.238 144.713V147.881H182.086V141.521H183.19V142.589ZM192.615 144.737C192.615 144.825 192.607 144.941 192.591 145.085H187.431C187.503 145.645 187.747 146.097 188.163 146.441C188.587 146.777 189.111 146.945 189.735 146.945C190.495 146.945 191.107 146.689 191.571 146.177L192.207 146.921C191.919 147.257 191.559 147.513 191.127 147.689C190.703 147.865 190.227 147.953 189.699 147.953C189.027 147.953 188.431 147.817 187.911 147.545C187.391 147.265 186.987 146.877 186.699 146.381C186.419 145.885 186.279 145.325 186.279 144.701C186.279 144.085 186.415 143.529 186.687 143.033C186.967 142.537 187.347 142.153 187.827 141.881C188.315 141.601 188.863 141.461 189.471 141.461C190.079 141.461 190.619 141.601 191.091 141.881C191.571 142.153 191.943 142.537 192.207 143.033C192.479 143.529 192.615 144.097 192.615 144.737ZM189.471 142.433C188.919 142.433 188.455 142.601 188.079 142.937C187.711 143.273 187.495 143.713 187.431 144.257H191.511C191.447 143.721 191.227 143.285 190.851 142.949C190.483 142.605 190.023 142.433 189.471 142.433ZM196.039 147.953C195.519 147.953 195.019 147.885 194.539 147.749C194.059 147.605 193.683 147.425 193.411 147.209L193.891 146.297C194.171 146.497 194.511 146.657 194.911 146.777C195.311 146.897 195.715 146.957 196.123 146.957C197.131 146.957 197.635 146.669 197.635 146.093C197.635 145.901 197.567 145.749 197.431 145.637C197.295 145.525 197.123 145.445 196.915 145.397C196.715 145.341 196.427 145.281 196.051 145.217C195.539 145.137 195.119 145.045 194.791 144.941C194.471 144.837 194.195 144.661 193.963 144.413C193.731 144.165 193.615 143.817 193.615 143.369C193.615 142.793 193.855 142.333 194.335 141.989C194.815 141.637 195.459 141.461 196.267 141.461C196.691 141.461 197.115 141.513 197.539 141.617C197.963 141.721 198.311 141.861 198.583 142.037L198.091 142.949C197.571 142.613 196.959 142.445 196.255 142.445C195.767 142.445 195.395 142.525 195.139 142.685C194.883 142.845 194.755 143.057 194.755 143.321C194.755 143.529 194.827 143.693 194.971 143.813C195.115 143.933 195.291 144.021 195.499 144.077C195.715 144.133 196.015 144.197 196.399 144.269C196.911 144.357 197.323 144.453 197.635 144.557C197.955 144.653 198.227 144.821 198.451 145.061C198.675 145.301 198.787 145.637 198.787 146.069C198.787 146.645 198.539 147.105 198.043 147.449C197.555 147.785 196.887 147.953 196.039 147.953ZM205.975 144.737C205.975 144.825 205.967 144.941 205.951 145.085H200.791C200.863 145.645 201.107 146.097 201.523 146.441C201.947 146.777 202.471 146.945 203.095 146.945C203.855 146.945 204.467 146.689 204.931 146.177L205.567 146.921C205.279 147.257 204.919 147.513 204.487 147.689C204.063 147.865 203.587 147.953 203.059 147.953C202.387 147.953 201.791 147.817 201.271 147.545C200.751 147.265 200.347 146.877 200.059 146.381C199.779 145.885 199.639 145.325 199.639 144.701C199.639 144.085 199.775 143.529 200.047 143.033C200.327 142.537 200.707 142.153 201.187 141.881C201.675 141.601 202.223 141.461 202.831 141.461C203.439 141.461 203.979 141.601 204.451 141.881C204.931 142.153 205.303 142.537 205.567 143.033C205.839 143.529 205.975 144.097 205.975 144.737ZM202.831 142.433C202.279 142.433 201.815 142.601 201.439 142.937C201.071 143.273 200.855 143.713 200.791 144.257H204.871C204.807 143.721 204.587 143.285 204.211 142.949C203.843 142.605 203.383 142.433 202.831 142.433ZM208.678 142.589C208.878 142.221 209.174 141.941 209.566 141.749C209.958 141.557 210.434 141.461 210.994 141.461V142.577C210.93 142.569 210.842 142.565 210.73 142.565C210.106 142.565 209.614 142.753 209.254 143.129C208.902 143.497 208.726 144.025 208.726 144.713V147.881H207.574V141.521H208.678V142.589ZM218.3 141.521L215.516 147.881H214.34L211.556 141.521H212.756L214.94 146.621L217.172 141.521H218.3ZM224.947 144.737C224.947 144.825 224.939 144.941 224.923 145.085H219.763C219.835 145.645 220.079 146.097 220.495 146.441C220.919 146.777 221.443 146.945 222.067 146.945C222.827 146.945 223.439 146.689 223.903 146.177L224.539 146.921C224.251 147.257 223.891 147.513 223.459 147.689C223.035 147.865 222.559 147.953 222.031 147.953C221.359 147.953 220.763 147.817 220.243 147.545C219.723 147.265 219.319 146.877 219.031 146.381C218.751 145.885 218.611 145.325 218.611 144.701C218.611 144.085 218.747 143.529 219.019 143.033C219.299 142.537 219.679 142.153 220.159 141.881C220.647 141.601 221.195 141.461 221.803 141.461C222.411 141.461 222.951 141.601 223.423 141.881C223.903 142.153 224.275 142.537 224.539 143.033C224.811 143.529 224.947 144.097 224.947 144.737ZM221.803 142.433C221.251 142.433 220.787 142.601 220.411 142.937C220.043 143.273 219.827 143.713 219.763 144.257H223.843C223.779 143.721 223.559 143.285 223.183 142.949C222.815 142.605 222.355 142.433 221.803 142.433ZM232.547 138.977V147.881H231.443V146.873C231.187 147.225 230.863 147.493 230.471 147.677C230.079 147.861 229.647 147.953 229.175 147.953C228.559 147.953 228.007 147.817 227.519 147.545C227.031 147.273 226.647 146.893 226.367 146.405C226.095 145.909 225.959 145.341 225.959 144.701C225.959 144.061 226.095 143.497 226.367 143.009C226.647 142.521 227.031 142.141 227.519 141.869C228.007 141.597 228.559 141.461 229.175 141.461C229.631 141.461 230.051 141.549 230.435 141.725C230.819 141.893 231.139 142.145 231.395 142.481V138.977H232.547ZM229.271 146.945C229.671 146.945 230.035 146.853 230.363 146.669C230.691 146.477 230.947 146.213 231.131 145.877C231.315 145.533 231.407 145.141 231.407 144.701C231.407 144.261 231.315 143.873 231.131 143.537C230.947 143.193 230.691 142.929 230.363 142.745C230.035 142.561 229.671 142.469 229.271 142.469C228.863 142.469 228.495 142.561 228.167 142.745C227.847 142.929 227.591 143.193 227.399 143.537C227.215 143.873 227.123 144.261 227.123 144.701C227.123 145.141 227.215 145.533 227.399 145.877C227.591 146.213 227.847 146.477 228.167 146.669C228.495 146.853 228.863 146.945 229.271 146.945Z" fill="white"/>
</svg>
